<svg width="50" height="50" viewBox="0 0 50 50" fill="none" xmlns="http://www.w3.org/2000/svg">
<g clip-path="url(#clip0_742_2060)">
<path d="M39.6484 10.4492H10.3516V30.957H39.6484V10.4492ZM25 8.98438C25.8097 8.98438 26.4648 8.3292 26.4648 7.51953V1.46484C26.4648 0.655176 25.8097 0 25 0C24.1903 0 23.5352 0.655176 23.5352 1.46484V7.51953C23.5352 8.3292 24.1903 8.98438 25 8.98438ZM7.42188 26.5625C8.23154 26.5625 8.88672 25.9073 8.88672 25.0977V16.3086C8.88672 15.4989 8.23154 14.8438 7.42188 14.8438H4.39453C1.97129 14.8438 0 16.815 0 19.2383V22.168C0 24.5912 1.97129 26.5625 4.39453 26.5625H7.42188ZM45.6055 14.8438H42.5781C41.7685 14.8438 41.1133 15.4989 41.1133 16.3086V25.0977C41.1133 25.9073 41.7685 26.5625 42.5781 26.5625H45.6055C48.0287 26.5625 50 24.5912 50 22.168V19.2383C50 16.815 48.0287 14.8438 45.6055 14.8438ZM27.9297 32.4219H22.0703C21.2606 32.4219 20.6055 33.077 20.6055 33.8867V39.7461C20.6055 40.5558 21.2606 41.2109 22.0703 41.2109H27.9297C28.7394 41.2109 29.3945 40.5558 29.3945 39.7461V33.8867C29.3945 33.077 28.7394 32.4219 27.9297 32.4219ZM10.3516 41.2109H7.42188C4.99863 41.2109 3.02734 43.1822 3.02734 45.6055V48.5352C3.02734 49.3448 3.68252 50 4.49219 50C5.30186 50 5.95703 49.3448 5.95703 48.5352V45.6055C5.95703 44.7973 6.61504 44.1406 7.42188 44.1406H10.3516C11.1612 44.1406 11.8164 43.4855 11.8164 42.6758C11.8164 41.8661 11.1612 41.2109 10.3516 41.2109ZM42.5781 41.2109H39.6484C38.8388 41.2109 38.1836 41.8661 38.1836 42.6758C38.1836 43.4855 38.8388 44.1406 39.6484 44.1406H42.5781C43.385 44.1406 44.043 44.7973 44.043 45.6055V48.5352C44.043 49.3448 44.6981 50 45.5078 50C46.3175 50 46.9727 49.3448 46.9727 48.5352V45.6055C46.9727 43.1822 45.0014 41.2109 42.5781 41.2109Z" fill="url(#paint0_linear_742_2060)"/>
<path d="M39.6484 6.05469H10.3516C7.91992 6.05469 5.95703 8.01758 5.95703 10.4492V30.957C5.95703 33.3886 7.91992 35.3516 10.3516 35.3516H39.6484C42.0803 35.3516 44.043 33.3886 44.043 30.957V10.4492C44.043 8.01758 42.0803 6.05469 39.6484 6.05469ZM11.8164 16.3086C11.8164 13.877 13.7793 11.9141 16.2109 11.9141C18.6427 11.9141 20.6055 13.877 20.6055 16.3086C20.6055 18.7401 18.6427 20.7031 16.2109 20.7031C13.7793 20.7031 11.8164 18.7401 11.8164 16.3086ZM32.3242 28.0273C32.3242 28.8476 31.6798 29.4922 30.8594 29.4922C30.039 29.4922 29.3945 28.8476 29.3945 28.0273V26.5625H20.6055V28.0273C20.6055 28.8476 19.961 29.4922 19.1406 29.4922C18.3202 29.4922 17.6758 28.8476 17.6758 28.0273V25.0977C17.6758 24.2772 18.3202 23.6328 19.1406 23.6328H30.8594C31.6798 23.6328 32.3242 24.2772 32.3242 25.0977V28.0273ZM33.7891 20.7031C31.3574 20.7031 29.3945 18.7401 29.3945 16.3086C29.3945 13.877 31.3574 11.9141 33.7891 11.9141C36.2209 11.9141 38.1836 13.877 38.1836 16.3086C38.1836 18.7401 36.2209 20.7031 33.7891 20.7031ZM36.7188 38.2812H13.2812C10.858 38.2812 8.88672 40.2525 8.88672 42.6758V48.5352C8.88672 49.3448 9.54189 50 10.3516 50H39.6484C40.4581 50 41.1133 49.3448 41.1133 48.5352V42.6758C41.1133 40.2524 39.142 38.2812 36.7188 38.2812Z" fill="url(#paint1_linear_742_2060)"/>
</g>
<defs>
<linearGradient id="paint0_linear_742_2060" x1="25" y1="50" x2="25" y2="0" gradientUnits="userSpaceOnUse">
<stop stop-color="#FFBEF9"/>
<stop offset="1" stop-color="#FFF1FF"/>
</linearGradient>
<linearGradient id="paint1_linear_742_2060" x1="25" y1="50" x2="25" y2="6.05469" gradientUnits="userSpaceOnUse">
<stop stop-color="#A93AFF"/>
<stop offset="1" stop-color="#FF81FF"/>
</linearGradient>
<clipPath id="clip0_742_2060">
<rect width="50" height="50" fill="white"/>
</clipPath>
</defs>
</svg>
