<svg width="55" height="55" viewBox="0 0 55 55" fill="none" xmlns="http://www.w3.org/2000/svg">
<path d="M40.3906 0H40.0039L27.5 4.83398L15.0283 0H14.6094C11.9345 0 9.77539 2.15918 9.77539 4.83398V46.9434L27.5 50.166L45.2246 46.9434V4.83398C45.2246 2.15918 43.0655 0 40.3906 0Z" fill="url(#paint0_linear_3703_174)"/>
<path d="M22.666 8.05664H32.334C33.3976 8.05664 34.332 7.54091 34.9121 6.76747L40.0039 0H15.0283L20.0879 6.76747C20.668 7.54091 21.6024 8.05664 22.666 8.05664ZM9.77539 46.9434V50.166C9.77539 52.8406 11.9345 55 14.6094 55H40.3906C43.0655 55 45.2246 52.8406 45.2246 50.166V46.9434H9.77539ZM17.832 29.1113C16.9414 29.1113 16.2207 29.832 16.2207 30.7227V33.9453C16.2207 36.6109 18.3891 38.7793 21.0547 38.7793H33.9453C36.6109 38.7793 38.7793 36.6109 38.7793 33.9453V30.7227C38.7793 29.832 38.0586 29.1113 37.168 29.1113C36.2773 29.1113 35.5566 29.832 35.5566 30.7227V33.9453C35.5566 34.8343 34.8328 35.5566 33.9453 35.5566H21.0547C20.1672 35.5566 19.4434 34.8343 19.4434 33.9453V30.7227C19.4434 29.832 18.7227 29.1113 17.832 29.1113ZM27.5 16.2207C26.6094 16.2207 25.8887 16.9414 25.8887 17.832V26.8328L25.4166 26.3607C24.7872 25.7313 23.7674 25.7313 23.138 26.3607C22.5086 26.9901 22.5086 28.0098 23.138 28.6392L26.3588 31.8598C26.9778 32.4805 28.0038 32.4989 28.6412 31.8598L31.862 28.6392C32.4914 28.0098 32.4914 26.9901 31.862 26.3607C31.2326 25.7313 30.2128 25.7313 29.5834 26.3607L29.1113 26.8328V17.832C29.1113 16.9414 28.3906 16.2207 27.5 16.2207Z" fill="url(#paint1_linear_3703_174)"/>
<defs>
<linearGradient id="paint0_linear_3703_174" x1="27.5" y1="50.166" x2="27.5" y2="0" gradientUnits="userSpaceOnUse">
<stop stop-color="#A93AFF"/>
<stop offset="1" stop-color="#FF81FF"/>
</linearGradient>
<linearGradient id="paint1_linear_3703_174" x1="27.5" y1="55.0002" x2="27.5" y2="6.55653e-05" gradientUnits="userSpaceOnUse">
<stop stop-color="#FFBEF9"/>
<stop offset="1" stop-color="#FFF1FF"/>
</linearGradient>
</defs>
</svg>
