<svg width="50" height="50" viewBox="0 0 50 50" fill="none" xmlns="http://www.w3.org/2000/svg">
<path d="M36.8321 0H13.3945C10.9713 0 9 1.97129 9 4.39453V45.6055C9 48.0287 10.9713 50 13.3945 50H36.8321C39.2553 50 41.2266 48.0287 41.2266 45.6055V4.39453C41.2266 1.97129 39.2553 0 36.8321 0Z" fill="url(#paint0_linear_3737_2)"/>
<path d="M25 8.92968C25.809 8.92968 26.4649 8.27382 26.4649 7.46484C26.4649 6.65566 25.809 6 25 6C24.191 6 23.5352 6.65566 23.5352 7.46484C23.5352 8.27382 24.191 8.92968 25 8.92968ZM27.9297 41.3515H22.0703C21.2607 41.3515 20.6055 42.0067 20.6055 42.8164C20.6055 43.6261 21.2607 44.2812 22.0703 44.2812H27.9297C28.7394 44.2812 29.3946 43.6261 29.3946 42.8164C29.3946 42.0067 28.7394 41.3515 27.9297 41.3515Z" fill="url(#paint1_linear_3737_2)"/>
<path d="M18.1602 21.8008C17.5195 21.8008 17.0391 22.3203 17.0391 22.9199V27.6797C17.0391 28.3203 17.5605 28.8008 18.1602 28.8008C18.7598 28.8008 19.2793 28.2793 19.2793 27.6797V22.9609C19.3203 22.3203 18.8008 21.8008 18.1602 21.8008ZM31.4805 21.8008C30.8398 21.8008 30.3594 22.3203 30.3594 22.9199V27.6797C30.3594 28.3203 30.8809 28.8008 31.4805 28.8008C32.0801 28.8008 32.5996 28.2793 32.5996 27.6797V22.9609C32.5996 22.3203 32.0801 21.8008 31.4805 21.8008Z" fill="white"/>
<path d="M22.9199 27.2402C22.2793 27.2402 21.8008 27.7598 21.8008 28.3594V33.1191C21.8008 33.7598 22.3203 34.2402 22.9199 34.2402C23.5605 34.2402 24.0391 33.7207 24.0391 33.1191V28.3594C24.0391 27.7598 23.5605 27.2402 22.9199 27.2402ZM26.7207 27.2402C26.0801 27.2402 25.5996 27.7598 25.5996 28.3594V33.1191C25.5996 33.7598 26.1191 34.2402 26.7207 34.2402C27.3203 34.2402 27.8398 33.7207 27.8398 33.1191V28.3594C27.8398 27.7598 27.3594 27.2402 26.7207 27.2402Z" fill="white"/>
<path fill-rule="evenodd" clip-rule="evenodd" d="M21.5605 15.8809C21.5996 15.8398 21.5996 15.8398 21.6406 15.8398C21.7171 15.8398 21.7561 15.8772 21.7952 15.9146C21.7971 15.9164 21.7989 15.9181 21.8008 15.9199L22.5996 17.4004C23.2793 17.0801 24 16.9199 24.8008 16.9199C25.5996 16.9199 26.3203 17.1191 27 17.4004L27.7207 15.9199C27.7598 15.8809 27.8398 15.8398 27.8809 15.8398C27.9002 15.8398 27.9099 15.8498 27.9198 15.86C27.9299 15.8704 27.9402 15.8809 27.9609 15.8809C28.0391 15.9199 28.0801 16 28.0391 16.0801L27.2402 17.5195C28.8008 18.3203 29.8398 19.8398 29.8398 21.5996H19.6797C19.6797 19.8398 20.7207 18.3203 22.2793 17.5195L21.4805 16.0801C21.4395 16 21.4805 15.9199 21.5605 15.8809ZM19.7207 29.4004V22H29.9199V29.4004C29.9199 30.0801 29.3594 30.6406 28.6797 30.6406H20.9609C20.2793 30.6406 19.7207 30.0801 19.7207 29.4004ZM22.039 19.3591C22.039 19.1189 22.2402 18.9197 22.4804 18.9197C22.7206 18.9197 22.8808 19.0798 22.9199 19.3591C22.9199 19.5994 22.7206 19.8005 22.4804 19.8005C22.2402 19.8005 22.039 19.5994 22.039 19.3591ZM26.7206 19.3591C26.7206 19.1189 26.9199 18.9197 27.1601 18.9197C27.4003 18.9197 27.5995 19.0798 27.5995 19.3591C27.5995 19.5994 27.4003 19.8005 27.1601 19.8005C26.9199 19.8005 26.7206 19.5994 26.7206 19.3591Z" fill="white"/>
<defs>
<linearGradient id="paint0_linear_3737_2" x1="25.1133" y1="50" x2="25.1133" y2="0" gradientUnits="userSpaceOnUse">
<stop stop-color="#FD3A84"/>
<stop offset="1" stop-color="#FFA68D"/>
</linearGradient>
<linearGradient id="paint1_linear_3737_2" x1="24.9999" y1="44.2812" x2="24.9999" y2="6" gradientUnits="userSpaceOnUse">
<stop stop-color="#FFC2CC"/>
<stop offset="1" stop-color="#FFF2F4"/>
</linearGradient>
</defs>
</svg>
