<svg width="50" height="50" viewBox="0 0 50 50" fill="none" xmlns="http://www.w3.org/2000/svg">
<path d="M16.9896 35.25C17.4244 35.25 17.8366 35.4431 18.1149 35.7771L20.1172 38.1797H29.8828L31.885 35.7771C32.0224 35.6121 32.1945 35.4794 32.389 35.3883C32.5834 35.2972 32.7955 35.25 33.0103 35.25H46.9727V8.39453C46.9727 5.97139 45.0013 4 42.5781 4H7.42188C4.99873 4 3.02734 5.97139 3.02734 8.39453V35.25H16.9896Z" fill="url(#paint0_linear_3673_12)"/>
<path d="M33.0104 35.25H48.5352C49.3441 35.25 50 35.9059 50 36.7148V40.6211C50 43.5875 47.5953 45.9922 44.6289 45.9922H5.37109C2.40469 45.9922 0 43.5875 0 40.6211V36.7148C0 35.9059 0.655859 35.25 1.46484 35.25H16.9896C17.4244 35.25 17.8366 35.4431 18.1149 35.7771L20.1172 38.1797H29.8828L31.885 35.7771C32.0224 35.6121 32.1945 35.4794 32.389 35.3883C32.5835 35.2972 32.7956 35.25 33.0104 35.25ZM10.3516 11.8125V17.6719H19.1406V11.8125C19.9496 11.8125 20.6055 11.1566 20.6055 10.3477C20.6055 9.53867 19.9496 8.88281 19.1406 8.88281H10.3516C9.54258 8.88281 8.88672 9.53867 8.88672 10.3477C8.88672 11.1566 9.54258 11.8125 10.3516 11.8125ZM10.3516 20.6016V26.9492C10.3516 29.3724 12.3229 31.3438 14.7461 31.3438C17.1692 31.3438 19.1406 29.3724 19.1406 26.9492V20.6016H10.3516ZM37.207 14.2539C37.207 11.2923 34.7976 8.88281 31.8359 8.88281C28.8743 8.88281 26.4648 11.2923 26.4648 14.2539C26.4648 17.2155 28.8743 19.625 31.8359 19.625C34.7976 19.625 37.207 17.2155 37.207 14.2539ZM38.1442 21.6297L36.7561 20.9356C35.3783 21.9528 33.6761 22.5547 31.8359 22.5547C29.9958 22.5547 28.2936 21.9528 26.9158 20.9355L25.5276 21.6296C24.6355 22.0757 23.8852 22.7614 23.3608 23.6099C22.8364 24.4584 22.5586 25.4362 22.5586 26.4337V29.8789C22.5586 30.6879 23.2145 31.3438 24.0234 31.3438H39.6484C40.4574 31.3438 41.1133 30.6879 41.1133 29.8789V26.4337C41.1133 25.4362 40.8355 24.4585 40.3111 23.61C39.7867 22.7615 39.0364 22.0758 38.1442 21.6297Z" fill="url(#paint1_linear_3673_12)"/>
<defs>
<linearGradient id="paint0_linear_3673_12" x1="25" y1="38.1797" x2="25" y2="4" gradientUnits="userSpaceOnUse">
<stop stop-color="#FFBEF9"/>
<stop offset="1" stop-color="#FFF1FF"/>
</linearGradient>
<linearGradient id="paint1_linear_3673_12" x1="25" y1="45.9922" x2="25" y2="8.88281" gradientUnits="userSpaceOnUse">
<stop stop-color="#A93AFF"/>
<stop offset="1" stop-color="#FF81FF"/>
</linearGradient>
</defs>
</svg>
