<svg width="55" height="55" viewBox="0 0 55 55" fill="none" xmlns="http://www.w3.org/2000/svg">
<path d="M12.998 48.3398H42.002V35.4492H12.998V48.3398ZM14.6094 32.2266H40.3906C41.2813 32.2266 42.002 31.5059 42.002 30.6152C42.002 22.6339 35.5224 16.1133 27.5 16.1133C19.5032 16.1133 12.998 22.6184 12.998 30.6152C12.998 31.5059 13.7187 32.2266 14.6094 32.2266Z" fill="url(#paint0_linear_3703_182)"/>
<path d="M51.2831 29.5518C50.961 29.1973 50.5097 29.0039 50.0585 29.0039H4.94135C4.49018 29.0039 4.0389 29.1973 3.71674 29.5518C3.42681 29.9061 3.26557 30.3896 3.33002 30.8408L6.55268 53.6143C6.68147 54.4199 7.35834 55 8.164 55H46.8359C47.6415 55 48.3184 54.4199 48.4472 53.6143L51.6699 30.8408C51.7344 30.3896 51.5731 29.9061 51.2831 29.5518ZM22.1825 43.9891C22.827 44.6015 22.827 45.6327 22.1825 46.245C21.6028 46.8895 20.5067 46.8898 19.9267 46.245L16.704 43.0224C16.0595 42.41 16.0595 41.3788 16.704 40.7665L19.9267 37.5438C20.539 36.8994 21.5701 36.8994 22.1825 37.5438C22.827 38.1561 22.827 39.1874 22.1825 39.7997L20.1202 41.8945L22.1825 43.9891ZM29.8847 39.0586L28.2734 45.5039C27.9988 46.5565 26.8096 46.9154 26.3076 46.6641C25.4373 46.4707 24.9218 45.6006 25.1152 44.7306L26.7265 38.2853C26.9521 37.415 27.8221 36.8995 28.6923 37.1249C29.5624 37.3183 30.0781 38.1884 29.8847 39.0586ZM38.2957 43.0224L35.0731 46.245C34.4934 46.8895 33.3973 46.8898 32.8173 46.245C32.1728 45.6327 32.1728 44.6015 32.8173 43.9891L34.8797 41.8945L32.8174 39.7997C32.1729 39.1874 32.1729 38.1561 32.8174 37.5438C33.4297 36.8994 34.4609 36.8994 35.0732 37.5438L38.2958 40.7665C38.9404 41.3788 38.9404 42.41 38.2957 43.0224ZM27.4999 16.1133C31.9437 16.1133 35.5566 12.4989 35.5566 8.05664C35.5566 3.61442 31.9437 0 27.4999 0C23.0562 0 19.4433 3.61442 19.4433 8.05664C19.4433 12.4989 23.0562 16.1133 27.4999 16.1133Z" fill="url(#paint1_linear_3703_182)"/>
<defs>
<linearGradient id="paint0_linear_3703_182" x1="27.5" y1="48.3398" x2="27.5" y2="16.1133" gradientUnits="userSpaceOnUse">
<stop stop-color="#5558FF"/>
<stop offset="1" stop-color="#00C0FF"/>
</linearGradient>
<linearGradient id="paint1_linear_3703_182" x1="27.5" y1="55" x2="27.5" y2="0" gradientUnits="userSpaceOnUse">
<stop stop-color="#ADDCFF"/>
<stop offset="0.503" stop-color="#EAF6FF"/>
<stop offset="1" stop-color="#EAF6FF"/>
</linearGradient>
</defs>
</svg>
