<svg width="50" height="50" viewBox="0 0 50 50" fill="none" xmlns="http://www.w3.org/2000/svg">
<path d="M45.5078 5.95703H4.49219C3.68252 5.95703 3.02734 6.61221 3.02734 7.42188V39.6484C3.02734 40.4581 3.68252 41.1133 4.49219 41.1133H45.5078C46.3175 41.1133 46.9727 40.4581 46.9727 39.6484V7.42188C46.9727 6.61221 46.3175 5.95703 45.5078 5.95703Z" fill="url(#paint0_linear_742_2021)"/>
<path d="M21.5268 32.22C22.2664 32.5182 23.1267 32.1618 23.4293 31.4032L29.2887 16.7547C29.5891 16.0037 29.2257 15.1511 28.4732 14.8507C27.7236 14.5517 26.8711 14.9151 26.5707 15.6675L20.7113 30.316C20.4109 31.0669 20.7743 31.9195 21.5268 32.22ZM48.5352 38.1837H1.46484C0.655176 38.1837 0 38.8389 0 39.6486V42.5783C0 43.3879 0.655176 44.0431 1.46484 44.0431H48.5352C49.3448 44.0431 50 43.3879 50 42.5783V39.6486C50 38.8389 49.3448 38.1837 48.5352 38.1837ZM31.2886 28.9655C31.8608 29.5376 32.7878 29.5376 33.36 28.9655L37.7545 24.5709C38.3267 23.9988 38.3267 23.0717 37.7545 22.4995L33.36 18.105C32.7878 17.5328 31.8607 17.5328 31.2886 18.105C30.7164 18.6772 30.7164 19.6042 31.2886 20.1764L34.6474 23.5353L31.2885 26.8942C30.7163 27.4663 30.7163 28.3933 31.2886 28.9655ZM16.6401 28.9655C17.2124 29.5376 18.1394 29.5376 18.7115 28.9655C19.2837 28.3933 19.2837 27.4662 18.7115 26.8941L15.3526 23.5353L18.7115 20.1764C19.2837 19.6042 19.2837 18.6772 18.7115 18.105C18.1394 17.5328 17.2123 17.5328 16.6401 18.105L12.2456 22.4995C11.6734 23.0717 11.6734 23.9988 12.2456 24.5709L16.6401 28.9655Z" fill="url(#paint1_linear_742_2021)"/>
<defs>
<linearGradient id="paint0_linear_742_2021" x1="25" y1="41.1133" x2="25" y2="5.95703" gradientUnits="userSpaceOnUse">
<stop stop-color="#C3FFE8"/>
<stop offset="0.997" stop-color="#F0FFF4"/>
</linearGradient>
<linearGradient id="paint1_linear_742_2021" x1="25" y1="44.0431" x2="25" y2="14.746" gradientUnits="userSpaceOnUse">
<stop stop-color="#00B59C"/>
<stop offset="1" stop-color="#9CFFAC"/>
</linearGradient>
</defs>
</svg>
