<svg width="50" height="50" viewBox="0 0 50 50" fill="none" xmlns="http://www.w3.org/2000/svg">
<g clip-path="url(#clip0_742_2070)">
<path d="M45.6055 5.85938H44.1406V1.46484C44.1406 0.655176 43.4855 0 42.6758 0H25.0977C24.288 0 23.6328 0.655176 23.6328 1.46484V5.85938H25.0977C27.5247 5.85938 29.4922 7.82686 29.4922 10.2539C29.4922 12.681 27.5247 14.6484 25.0977 14.6484H23.6328V19.043C23.6328 19.8526 24.288 20.5078 25.0977 20.5078H42.6758C43.4855 20.5078 44.1406 19.8526 44.1406 19.043V14.6484H45.6055C48.0287 14.6484 50 12.6771 50 10.2539C50 7.83066 48.0287 5.85938 45.6055 5.85938ZM24.9023 29.4922H7.32422C6.51455 29.4922 5.85938 30.1474 5.85938 30.957V35.3516H4.39453C1.97129 35.3516 0 37.3229 0 39.7461C0 42.1693 1.97129 44.1406 4.39453 44.1406H5.85938V48.5352C5.85938 49.3448 6.51455 50 7.32422 50H24.9023C25.712 50 26.3672 49.3448 26.3672 48.5352V44.1406H24.9023C22.4753 44.1406 20.5078 42.1731 20.5078 39.7461C20.5078 37.319 22.4753 35.3516 24.9023 35.3516H26.3672V30.957C26.3672 30.1474 25.712 29.4922 24.9023 29.4922Z" fill="url(#paint0_linear_742_2070)"/>
<path d="M19.043 5.85938H14.6484V4.39453C14.6484 1.97129 12.6771 0 10.2539 0C7.83066 0 5.85938 1.97129 5.85938 4.39453V5.85938H1.46484C0.655176 5.85938 0 6.51455 0 7.32422V24.9023C0 25.712 0.655176 26.3672 1.46484 26.3672H5.85938V24.9023C5.85938 22.4753 7.82686 20.5078 10.2539 20.5078C12.681 20.5078 14.6484 22.4753 14.6484 24.9023V26.3672H19.043C19.8526 26.3672 20.5078 25.712 20.5078 24.9023V7.32422C20.5078 6.51455 19.8526 5.85938 19.043 5.85938ZM48.5352 23.6328H44.1406V25.0977C44.1406 27.5247 42.1731 29.4922 39.7461 29.4922C37.319 29.4922 35.3516 27.5247 35.3516 25.0977V23.6328H30.957C30.1474 23.6328 29.4922 24.288 29.4922 25.0977V42.6758C29.4922 43.4855 30.1474 44.1406 30.957 44.1406H35.3516V45.6055C35.3516 48.0287 37.3229 50 39.7461 50C42.1693 50 44.1406 48.0287 44.1406 45.6055V44.1406H48.5352C49.3448 44.1406 50 43.4855 50 42.6758V25.0977C50 24.288 49.3448 23.6328 48.5352 23.6328Z" fill="url(#paint1_linear_742_2070)"/>
</g>
<defs>
<linearGradient id="paint0_linear_742_2070" x1="25" y1="50" x2="25" y2="0" gradientUnits="userSpaceOnUse">
<stop stop-color="#FFC2CC"/>
<stop offset="1" stop-color="#FFF2F4"/>
</linearGradient>
<linearGradient id="paint1_linear_742_2070" x1="25" y1="50" x2="25" y2="0" gradientUnits="userSpaceOnUse">
<stop stop-color="#FD3A84"/>
<stop offset="1" stop-color="#FFA68D"/>
</linearGradient>
<clipPath id="clip0_742_2070">
<rect width="50" height="50" fill="white"/>
</clipPath>
</defs>
</svg>
