<svg width="50" height="50" viewBox="0 0 50 50" fill="none" xmlns="http://www.w3.org/2000/svg">
<g clip-path="url(#clip0_742_2042)">
<path d="M26.4718 17.6758C21.6252 17.6758 17.6827 21.6183 17.6827 26.4648V29.3945C17.6827 34.2411 21.6252 38.1836 26.4718 38.1836C31.3184 38.1836 35.2609 34.2411 35.2609 29.3945V26.4648C35.2609 21.6183 31.3184 17.6758 26.4718 17.6758Z" fill="url(#paint0_linear_742_2042)"/>
<path d="M20.6296 8.67888L20.1175 11.7573C20.0259 12.3038 20.2519 12.8559 20.7012 13.1821C21.1504 13.5083 21.7483 13.5511 22.2375 13.2966L25.0069 11.8603L27.7764 13.2966C28.2639 13.5536 28.8643 13.5096 29.3127 13.1821C29.5328 13.0224 29.704 12.8044 29.8071 12.5527C29.9103 12.301 29.9411 12.0256 29.8964 11.7573L29.3843 8.67888L31.6073 6.49021C32.0021 6.10115 32.1452 5.52029 31.9735 4.99392C31.8895 4.73501 31.735 4.50466 31.5273 4.32878C31.3195 4.1529 31.0669 4.03845 30.7976 3.99832L27.7135 3.53201L26.3173 0.742456C25.8194 -0.247485 24.1944 -0.247485 23.6966 0.742456L22.3004 3.53191L19.2162 3.99822C18.947 4.03838 18.6943 4.15283 18.4866 4.32871C18.2789 4.50459 18.1243 4.73493 18.0403 4.99382C17.8686 5.52029 18.0117 6.10105 18.4065 6.49011L20.6296 8.67888ZM14.6643 19.2064C14.8845 19.0467 15.0557 18.8287 15.1588 18.577C15.2619 18.3253 15.2928 18.0499 15.248 17.7816L14.7359 14.7032L16.959 12.5145C17.3538 12.1255 17.4969 11.5446 17.3252 11.0182C17.2412 10.7593 17.0867 10.529 16.8789 10.3531C16.6712 10.1772 16.4185 10.0628 16.1493 10.0226L13.0651 9.55632L11.6689 6.76687C11.1711 5.77693 9.54608 5.77693 9.04823 6.76687L7.65194 9.55613L4.56776 10.0224C4.29855 10.0626 4.04588 10.177 3.83816 10.3529C3.63043 10.5288 3.47588 10.7591 3.39188 11.018C3.2202 11.5445 3.36326 12.1253 3.75809 12.5143L5.98114 14.703L5.46903 17.7814C5.37742 18.3279 5.6035 18.8801 6.05272 19.2062C6.50194 19.5324 7.09696 19.5753 7.58905 19.3207L10.3585 17.8846L13.1279 19.3209C13.6156 19.5778 14.2159 19.5339 14.6643 19.2064ZM46.622 11.0181C46.538 10.7592 46.3834 10.5289 46.1757 10.353C45.968 10.1771 45.7153 10.0627 45.4461 10.0225L42.3619 9.55623L40.9657 6.76677C40.4679 5.77683 38.8429 5.77683 38.345 6.76677L36.9488 9.55623L33.8646 10.0225C33.5954 10.0627 33.3428 10.1771 33.135 10.353C32.9273 10.5289 32.7728 10.7592 32.6888 11.0181C32.5171 11.5446 32.6601 12.1254 33.055 12.5144L35.278 14.7031L34.7659 17.7815C34.7211 18.0498 34.752 18.3253 34.8551 18.5769C34.9582 18.8286 35.1294 19.0466 35.3496 19.2063C35.7959 19.5325 36.3938 19.5754 36.8859 19.3208L39.6554 17.8846L42.4248 19.3209C42.9124 19.5779 43.5128 19.534 43.9611 19.2064C44.1812 19.0467 44.3525 18.8287 44.4556 18.577C44.5587 18.3253 44.5896 18.0499 44.5448 17.7816L44.0327 14.7032L46.2557 12.5145C46.6506 12.1254 46.7936 11.5446 46.622 11.0181ZM33.796 38.1836H19.1475C15.1078 38.1836 11.8233 41.468 11.8233 45.5078V48.5351C11.8233 49.3448 12.4785 50 13.2882 50H39.6554C40.465 50 41.1202 49.3448 41.1202 48.5351V45.5078C41.1202 41.468 37.8357 38.1836 33.796 38.1836Z" fill="url(#paint1_linear_742_2042)"/>
</g>
<defs>
<linearGradient id="paint0_linear_742_2042" x1="26.4718" y1="38.1836" x2="26.4718" y2="17.6758" gradientUnits="userSpaceOnUse">
<stop stop-color="#FFE59A"/>
<stop offset="1" stop-color="#FFFFD5"/>
</linearGradient>
<linearGradient id="paint1_linear_742_2042" x1="25.0069" y1="50" x2="25.0069" y2="-2.38419e-05" gradientUnits="userSpaceOnUse">
<stop stop-color="#FD5900"/>
<stop offset="1" stop-color="#FFDE00"/>
</linearGradient>
<clipPath id="clip0_742_2042">
<rect width="50" height="50" fill="white"/>
</clipPath>
</defs>
</svg>
