<svg id="Logo_v2" data-name="Logo v2" xmlns="http://www.w3.org/2000/svg" width="140.697" height="34" viewBox="0 0 140.697 34">
  <path id="Path_197" data-name="Path 197" d="M90.506,1173.219v8.764a7.043,7.043,0,0,1-14.086,0v-8.764a1.722,1.722,0,0,1,3.443,0v8.695a3.6,3.6,0,1,0,7.2,0v-8.695a1.722,1.722,0,0,1,3.444,0" transform="translate(-65.643 -1163.739)" fill="#93da49"/>
  <path id="Path_198" data-name="Path 198" d="M73.742,1173.253v16.069a8.78,8.78,0,0,1-2.574,6.26,9,9,0,0,1-3.235,2.052,1.614,1.614,0,0,1-.591.1,1.72,1.72,0,0,1-.557-3.339,5.5,5.5,0,0,0,1.948-1.252,5.2,5.2,0,0,0,1.565-3.826v-16.069a1.722,1.722,0,0,1,3.444,0" transform="translate(-65.643 -1163.739)" fill="#93da49"/>
  <path id="Path_199" data-name="Path 199" d="M70.8,1166.823a1.7,1.7,0,0,1,0-2.348,1.777,1.777,0,0,1,1.175-.5,1.708,1.708,0,0,1,1.174.5,1.622,1.622,0,0,1,0,2.348,1.676,1.676,0,0,1-1.174.47,1.741,1.741,0,0,1-1.175-.47" transform="translate(-65.643 -1163.739)" fill="#93da49"/>
  <path id="Path_200" data-name="Path 200" d="M110.185,1180.116v-14.648a1.747,1.747,0,0,0-3.494,0v7.589a8.865,8.865,0,1,0,3.494,7.059m-3.6-.03a4.985,4.985,0,0,1-1.6,3.72,5.309,5.309,0,0,1-3.719,1.487,5.508,5.508,0,0,1-3.72-1.487,5.4,5.4,0,0,1,0-7.44,5.622,5.622,0,0,1,3.72-1.595,5.408,5.408,0,0,1,3.719,1.595,4.982,4.982,0,0,1,1.6,3.72" transform="translate(-65.643 -1163.739)" fill="#93da49"/>
  <path id="Path_201" data-name="Path 201" d="M129.873,1180.115a8.858,8.858,0,1,0-8.858,8.859,8.854,8.854,0,0,0,8.858-8.859m-3.507.055a5.073,5.073,0,0,1-1.622,3.784,5.4,5.4,0,0,1-3.784,1.513,5.6,5.6,0,0,1-3.783-1.513,5.487,5.487,0,0,1,0-7.567,5.713,5.713,0,0,1,3.783-1.623,5.5,5.5,0,0,1,3.784,1.623,5.069,5.069,0,0,1,1.622,3.783" transform="translate(-65.643 -1163.739)" fill="#93da49"/>
  <path id="Path_202" data-name="Path 202" d="M166.1,1180.24a5.367,5.367,0,0,0-5.255-5.5,5.577,5.577,0,0,0-5.5,5.5,5.367,5.367,0,0,0,5.5,5.255,5.156,5.156,0,0,0,5.255-5.255m3.479,0v6.959a1.716,1.716,0,0,1-1.775,1.775,1.87,1.87,0,0,1-1.7-1.775,7.744,7.744,0,0,1-5.255,1.775,8.719,8.719,0,0,1-8.983-8.734,8.925,8.925,0,0,1,8.983-8.982,8.718,8.718,0,0,1,8.734,8.982" transform="translate(-65.643 -1163.739)" fill="#fff"/>
  <path id="Path_203" data-name="Path 203" d="M189.639,1180.116v7.093a1.748,1.748,0,1,1-3.5,0v-7.093a5.364,5.364,0,1,0-10.728,0v7.093a1.747,1.747,0,1,1-3.494,0v-7.093a8.859,8.859,0,0,1,17.717,0" transform="translate(-65.643 -1163.739)" fill="#fff"/>
  <path id="Path_204" data-name="Path 204" d="M205.712,1188.555a1.668,1.668,0,0,1-2.411-.21l-6.638-7.966-1.083.734v6.114a1.751,1.751,0,0,1-1.747,1.747,1.722,1.722,0,0,1-1.712-1.747v-21.473a1.715,1.715,0,0,1,1.712-1.712,1.744,1.744,0,0,1,1.747,1.712v11.272l7.931-5.206a1.725,1.725,0,1,1,2.2,2.655l-6.114,4.018,6.359,7.651a1.718,1.718,0,0,1-.245,2.411" transform="translate(-65.643 -1163.739)" fill="#fff"/>
  <path id="Path_205" data-name="Path 205" d="M132.185,1180.116a8.837,8.837,0,1,0,3.493-7.059v-7.589a1.747,1.747,0,0,0-3.493,0v14.648Zm3.6-.03a4.981,4.981,0,0,1,1.6-3.72,5.412,5.412,0,0,1,3.72-1.595,5.619,5.619,0,0,1,3.719,1.595,5.4,5.4,0,0,1,0,7.44,5.505,5.505,0,0,1-3.719,1.487,5.313,5.313,0,0,1-3.72-1.487,4.984,4.984,0,0,1-1.6-3.72" transform="translate(-65.643 -1163.739)" fill="#fff"/>
</svg>
