<svg width="115" height="50" viewBox="0 0 115 50" xmlns="http://www.w3.org/2000/svg" xmlns:xlink="http://www.w3.org/1999/xlink"><title>Group 15</title><defs><path id="a" d="M0 .128h50.326v49.29H0z"/><path id="c" d="M.35.43h19.09v25.063H.351z"/></defs><g fill="none" fill-rule="evenodd"><g transform="translate(0 .453)"><mask id="b" fill="#fff"><use xlink:href="#a"/></mask><path d="M24.662 12.543c-1.093.222-2.142.346-3.135.653-3.823 1.182-6.504 3.656-8.053 7.344-.12.288-.252.41-.575.394-.572-.03-1.147-.014-1.72-.006-.73.01-1.117.395-1.118 1.114-.003 2.1-.003 4.198 0 6.297.001.749.38 1.125 1.14 1.134.518.006 1.038.03 1.553-.008.41-.029.602.104.764.498 2.287 5.563 8.19 8.75 14.082 7.543 4.417-.905 7.495-3.51 9.269-7.648.125-.293.267-.404.581-.39.587.023 1.176.014 1.763.003.665-.012 1.082-.41 1.085-1.075.011-2.127.01-4.254 0-6.38-.003-.683-.422-1.077-1.116-1.087-.573-.01-1.148-.027-1.72.006-.343.019-.472-.115-.602-.418-1.715-3.995-4.682-6.534-8.916-7.555-.726-.175-1.477-.245-2.245-.368 0-1.297.007-2.582-.006-3.868-.002-.26.073-.385.319-.496a1.99 1.99 0 0 0 1.073-2.486c-.311-.897-1.148-1.426-2.131-1.35-.85.066-1.61.753-1.775 1.601-.179.917.276 1.813 1.116 2.236.142.07.349.213.351.325.024 1.342.016 2.683.016 3.987zM26.45.128c.705.084 1.41.156 2.114.253 5.866.815 10.854 3.368 14.927 7.657 3.673 3.868 5.9 8.473 6.606 13.759 1.656 12.386-5.882 23.937-17.857 27.453-.143.042-.278.112-.416.169h-.084c-.004-.068.002-.14-.012-.205-.444-2.132-.9-4.262-1.332-6.395-.313-1.545-1.36-2.515-2.928-2.563a73.99 73.99 0 0 0-4.614.003c-1.54.05-2.575.988-2.882 2.5-.117.575-.215 1.153-.337 1.726-.341 1.61-.691 3.217-1.048 4.873-.172-.04-.318-.066-.46-.106-3.07-.885-5.88-2.294-8.386-4.273-5.34-4.222-8.534-9.698-9.494-16.453-.1-.703-.166-1.41-.248-2.115V24.06c.094-.844.158-1.693.287-2.531.765-4.997 2.821-9.396 6.234-13.125 4.115-4.497 9.21-7.174 15.255-8.02.716-.1 1.437-.17 2.155-.255h2.52z" fill="#25467F" mask="url(#b)"/></g><g transform="translate(95.349 12.663)"><mask id="d" fill="#fff"><use xlink:href="#c"/></mask><path d="M19.44 5.972c-2.366-.004-4.731-.01-7.096-.013H6.36v5.549h10.27v5.454H3.264a9.392 9.392 0 0 0-.024.11c.198.08.395.163.594.24.744.285 1.492.56 2.228.863.116.048.257.222.258.339.014 2.267.01 4.534.008 6.801 0 .053-.017.106-.03.178H.351V.463h18.546c.181 0 .361-.02.542-.032v5.542z" fill="#25467F" mask="url(#d)"/></g><path d="M56.416 38.157v-.42c0-1.735-.009-3.47.01-5.206a.992.992 0 0 1 .247-.618c3.215-3.355 6.44-6.7 9.673-10.037.195-.201.455-.371.718-.47 2.262-.848 4.532-1.678 6.799-2.514a1.2 1.2 0 0 0 .446-.257H56.446v-5.477h21.186c.007.157.02.305.02.453.001 1.638-.009 3.275.008 4.912.003.323-.101.543-.325.766-4.166 4.146-8.325 8.3-12.485 12.452-.115.115-.224.236-.403.423h13.025v5.993H56.416zm33.239 0h-6.007v-.47c0-7.275.002-14.549-.009-21.823 0-.337.093-.48.419-.586 1.726-.56 3.443-1.149 5.163-1.726.13-.044.264-.078.434-.127v24.732z" fill="#25467F"/><path d="M29.415 25.647a4.216 4.216 0 0 1-4.24 4.229c-2.36 0-4.25-1.876-4.252-4.217a4.234 4.234 0 0 1 4.24-4.236 4.23 4.23 0 0 1 4.252 4.224m-5.469 8.54a1.234 1.234 0 0 1 1.215-1.24 1.23 1.23 0 0 1 .016 2.461 1.23 1.23 0 0 1-1.23-1.221" fill="#D8263E"/></g></svg>