<svg version="1.2" xmlns="http://www.w3.org/2000/svg" viewBox="0 0 159 31" width="159" height="31">
	<title>logo-5-svg</title>
	<style>
		.s0 { fill: #32bebb } 
		.s1 { fill: #008080 } 
		.s2 { fill: #008181 } 
		.s3 { fill: #ffffff } 
		.s4 { fill: #0c323f } 
	</style>
	<path id="Layer" class="s0" d="m122.8 12.5c-0.7 0-1.3 0.6-1.3 1.5 0 0.9 0.5 1.5 1.4 1.5 0.5 0 1-0.3 1.2-0.7v-0.4h-1.2v-0.7h2v1.2c-0.3 0.8-1 1.4-2.1 1.4-1.2 0-2.2-1-2.2-2.3 0-1.3 1-2.2 2.2-2.2 0.9 0 1.7 0.4 2 1.2l-0.7 0.2c-0.3-0.5-0.7-0.7-1.3-0.7z"/>
	<path id="Layer" fill-rule="evenodd" class="s0" d="m129 13.2c0 0.5-0.3 1.1-1 1.3l1.1 1.7h-1l-1-1.7h-0.6v1.7h-0.9v-4.4h1.8c1.1 0 1.6 0.6 1.6 1.4zm-1.6-0.7h-0.9v1.3h0.9c0.5 0 0.7-0.2 0.7-0.6 0-0.4-0.2-0.7-0.7-0.7z"/>
	<path id="Layer" fill-rule="evenodd" class="s0" d="m129.5 14c0-1.3 1-2.2 2.3-2.2 1.2 0 2.2 0.9 2.2 2.2 0 1.3-1 2.3-2.2 2.3-1.3 0-2.3-1-2.3-2.3zm3.6 0c0-0.9-0.5-1.5-1.3-1.5-0.9 0-1.4 0.6-1.4 1.5 0 0.9 0.5 1.5 1.4 1.5 0.8 0 1.3-0.6 1.3-1.5z"/>
	<path id="Layer" class="s0" d="m135.3 16.2l-1.2-4.4h0.9l0.9 3.4 0.8-3.4h1l0.9 3.4 0.8-3.4h0.9l-1.2 4.4h-1l-0.9-3.1-0.8 3.1z"/>
	<path id="Layer" class="s0" d="m124.2 20.2v0.8h-1.4v3.7h-0.9v-3.7h-1.3v-0.8z"/>
	<path id="Layer" fill-rule="evenodd" class="s0" d="m124.4 22.4c0-1.3 1-2.2 2.2-2.2 1.3 0 2.3 0.9 2.3 2.2 0 1.4-1 2.3-2.3 2.3-1.2 0-2.2-0.9-2.2-2.3zm3.6 0c0-0.9-0.6-1.5-1.4-1.5-0.8 0-1.3 0.6-1.3 1.5 0 1 0.5 1.6 1.3 1.6 0.8 0 1.4-0.6 1.4-1.6z"/>
	<path id="Layer" class="s0" d="m131.6 20.9c-0.8 0-1.4 0.7-1.4 1.5 0 1 0.6 1.6 1.4 1.6 0.6 0 1-0.3 1.2-0.8v-0.3h-1.2v-0.7h2.1v1.2c-0.4 0.7-1.1 1.3-2.1 1.3-1.3 0-2.3-0.9-2.3-2.3 0-1.3 1-2.2 2.3-2.2 0.9 0 1.7 0.4 2 1.2l-0.8 0.2c-0.3-0.5-0.7-0.7-1.2-0.7z"/>
	<path id="Layer" class="s0" d="m135.2 21v1.1h1.7v0.7h-1.7v1.1h2.3v0.8h-3.2v-4.5h3.2v0.8z"/>
	<path id="Layer" class="s0" d="m141.6 20.2v0.8h-1.4v3.7h-0.9v-3.7h-1.3v-0.8z"/>
	<path id="Layer" class="s0" d="m143.1 20.2v1.9h1.9v-1.9h0.9v4.5h-0.9v-1.9h-1.9v1.9h-0.9v-4.5z"/>
	<path id="Layer" class="s0" d="m147.6 21v1.1h1.7v0.7h-1.7v1.1h2.3v0.8h-3.2v-4.5h3.2v0.8z"/>
	<path id="Layer" fill-rule="evenodd" class="s0" d="m154 21.6c0 0.5-0.3 1.1-1 1.3l1.1 1.8h-1l-1-1.7h-0.7v1.7h-0.8v-4.5h1.8c1.1 0 1.6 0.7 1.6 1.4zm-1.6-0.6h-1v1.3h1c0.5 0 0.7-0.3 0.7-0.7 0-0.4-0.2-0.6-0.7-0.6z"/>
	<path id="Layer" class="s0" d="m13.1 10.5c-0.4-0.5-0.5-1.1-0.4-1.7 0.2-1.1 1.4-1.9 2.5-1.7 1.2 0.2 2 1.3 1.8 2.5-0.2 1.1-1.1 1.8-2.1 1.8q-0.2 0-0.4 0c-0.6-0.1-1.1-0.5-1.4-0.9z"/>
	<path id="Layer" fill-rule="evenodd" class="s0" d="m30.6 15.7c0 8.2-6.8 15-15 15-8.3 0-15-6.8-15-15 0-8.3 6.7-15 15-15 8.2 0 15 6.7 15 15zm-27.5 3.8c0.2-2.6 2.5-5.9 6.6-5.9 1.9 0 3.5 0.5 4.6 1.4q1.1-0.5 2.5-0.8c5.2-1.2 10.4-4.9 7.6-8.1-2.3-2.1-5.4-3.5-8.8-3.5-7.2 0-13 5.9-13 13.1q0 1.9 0.5 3.8zm25.5-3.8q0-1.6-0.3-3c-1.3 1.3-4.1 2.7-9.9 3.6q-1.3 0.2-2.3 0.6c2.4 3.8 1 9.7-3.3 9.1-4-0.6-5.1-6.5-0.4-9.9q-0.8-0.5-2-0.8c-1.5-0.4-4.1 0.3-5.4 2.3-0.4 0.7-1.5 3.7 0.5 6.3 2.4 2.9 6 4.8 10.1 4.8 7.2 0 13-5.9 13-13zm-14.5 2c-4.3 2.2-3.5 6.1-1.3 6.4 1.8 0.2 3.1-3.7 1.3-6.4z"/>
	<path id="Layer" class="s1" d="m12 23.8z"/>
	<path id="Layer" class="s2" d="m12.3 16.2q0-0.1 0.1-0.1c0.7 0.4 1.3 1 1.7 1.6-3.7 1.9-3.6 5-2.1 6.1-1.2-0.8-3.5-4.7 0.3-7.6z"/>
	<path id="Layer" class="s2" d="m25.8 14.3c-1.6 0.8-4 1.5-7.4 2q-1.3 0.2-2.3 0.6-0.7-1.1-1.8-1.9c1.8-0.7 3.9-0.3 5.2-0.3 1.9 0.2 4.3 0.3 6.3-0.4z"/>
	<path id="Layer" fill-rule="evenodd" class="s3" d="m50.5 12.2c0 2.2-1.2 4.5-4 5.3l4.2 7.2h-3.9l-3.9-6.9h-2.8v6.9h-3.5v-18h7.4c4.3 0 6.5 2.5 6.5 5.5zm-6.6-2.6h-3.8v5.3h3.8c2 0 3-1 3-2.7 0-1.6-1-2.6-3-2.6z"/>
	<path id="Layer" class="s3" d="m56.4 11.8v12.9h-3.6v-12.9z"/>
	<path id="Layer" fill-rule="evenodd" class="s3" d="m66.6 24.8c-1.8 0-3.1-0.8-4-1.7v1.6h-3.4v-18.6h3.5v7.1c0.9-0.9 2.2-1.6 3.9-1.6 3.3 0 5.6 2.6 5.6 6.6 0 4-2.3 6.6-5.6 6.6zm-0.9-10.1c-1.6 0-3 1.2-3 3.5 0 2.3 1.4 3.6 3 3.6 1.6 0 3-1.3 3-3.6 0-2.3-1.4-3.5-3-3.5z"/>
	<path id="Layer" fill-rule="evenodd" class="s3" d="m81.3 24.8c-1.7 0-3-0.8-3.9-1.7v1.6h-3.4v-18.6h3.5v7.1c0.8-0.9 2.2-1.6 3.8-1.6 3.4 0 5.7 2.6 5.7 6.6 0 4-2.3 6.6-5.7 6.6zm-0.8-10.1c-1.6 0-3 1.2-3 3.5 0 2.3 1.4 3.6 3 3.6 1.6 0 3-1.3 3-3.6 0-2.3-1.4-3.5-3-3.5z"/>
	<path id="Layer" fill-rule="evenodd" class="s3" d="m88.1 18.2c0-4 2.9-6.6 6.6-6.6 3.7 0 6.6 2.6 6.6 6.6 0 4.1-2.9 6.6-6.7 6.6-3.7 0-6.5-2.5-6.5-6.6zm9.6 0c0-2.4-1.4-3.6-3-3.6-1.6 0-3 1.2-3 3.6 0 2.5 1.3 3.6 2.9 3.6 1.6 0 3.1-1.1 3.1-3.6z"/>
	<path id="Layer" class="s3" d="m109.1 14.6c-1.6 0-2.5 1.1-2.5 3v7.1h-3.4v-12.9h3.4v1.3c0.8-0.9 2-1.5 3.4-1.5 3.1 0 5 2 5 5.6v7.5h-3.5v-7.1q0-3-2.4-3z"/>
	<path id="Layer" class="s3" d="m52.9 9.3q-0.4-0.6-0.3-1.5c0.2-1.1 1.2-1.8 2.4-1.6 1.1 0.2 1.8 1.2 1.6 2.3-0.2 1-1 1.7-2 1.7q-0.2 0-0.4 0c-0.5-0.1-1-0.4-1.3-0.9z"/>
	<path id="Layer" fill-rule="evenodd" class="s4" d="m157.5 19.6c0.9 0 1.5 0.6 1.5 1.5 0 0.8-0.6 1.5-1.5 1.5-0.8 0-1.4-0.7-1.4-1.5 0-0.9 0.6-1.5 1.4-1.5zm0 2.8c0.8 0 1.3-0.6 1.3-1.3 0-0.8-0.5-1.4-1.3-1.4-0.7 0-1.3 0.6-1.3 1.4 0 0.7 0.6 1.3 1.3 1.3zm0-1.2h-0.3v0.7h-0.2v-1.7h0.6c0.4 0 0.6 0.2 0.6 0.5 0 0.3-0.2 0.5-0.5 0.5l0.5 0.7h-0.2zm-0.3-0.8v0.7h0.5c0.2 0 0.3-0.1 0.3-0.4q0-0.3-0.3-0.3z"/>
</svg>