<svg width="55" height="55" viewBox="0 0 55 55" fill="none" xmlns="http://www.w3.org/2000/svg">
<path d="M41.4648 0H13.5352C11.462 0 9.77539 1.68663 9.77539 3.75977V46.7285H45.2246V3.75977C45.2246 1.68663 43.538 0 41.4648 0Z" fill="url(#paint0_linear_3703_162)"/>
<path d="M45.2246 46.7285V51.2402C45.2246 53.3134 43.538 55 41.4648 55H13.5352C11.462 55 9.77539 53.3134 9.77539 51.2402V46.7285H45.2246ZM19.8932 0L21.6744 5.34349C21.7813 5.66434 21.9865 5.94341 22.2609 6.14117C22.5353 6.33892 22.8649 6.44533 23.2031 6.44531H31.7969C32.1351 6.44532 32.4647 6.33891 32.739 6.14116C33.0134 5.9434 33.2186 5.66433 33.3255 5.34349L35.1068 0H19.8932ZM38.2422 41.8945H16.7578C15.8679 41.8945 15.1465 41.1731 15.1465 40.2832C15.1465 39.3933 15.8679 38.6719 16.7578 38.6719H38.2422C39.1321 38.6719 39.8535 39.3933 39.8535 40.2832C39.8535 41.1731 39.1321 41.8945 38.2422 41.8945ZM36.6309 22.5586V31.1523H37.168C38.0579 31.1523 38.7793 31.8738 38.7793 32.7637C38.7793 33.6536 38.0579 34.375 37.168 34.375H17.832C16.9421 34.375 16.2207 33.6536 16.2207 32.7637C16.2207 31.8738 16.9421 31.1523 17.832 31.1523H18.3691V22.5586H17.832C16.9421 22.5586 16.2207 21.8371 16.2207 20.9473V19.873C16.2207 19.3343 16.4899 18.8312 16.9383 18.5323L26.6062 12.087C26.871 11.9106 27.1819 11.8165 27.5001 11.8165C27.8182 11.8165 28.1291 11.9106 28.3939 12.087L38.0618 18.5323C38.2826 18.6795 38.4635 18.8788 38.5887 19.1127C38.7139 19.3466 38.7794 19.6078 38.7794 19.873V20.9473C38.7794 21.8371 38.058 22.5586 37.1681 22.5586H36.6309ZM25.8887 22.5586H21.5918V31.1523H25.8887V22.5586ZM33.4082 22.5586H29.1113V31.1523H33.4082V22.5586Z" fill="url(#paint1_linear_3703_162)"/>
<defs>
<linearGradient id="paint0_linear_3703_162" x1="27.5" y1="46.7285" x2="27.5" y2="0" gradientUnits="userSpaceOnUse">
<stop stop-color="#C3FFE8"/>
<stop offset="0.997" stop-color="#F0FFF4"/>
</linearGradient>
<linearGradient id="paint1_linear_3703_162" x1="27.5" y1="55" x2="27.5" y2="0" gradientUnits="userSpaceOnUse">
<stop stop-color="#00B59C"/>
<stop offset="1" stop-color="#9CFFAC"/>
</linearGradient>
</defs>
</svg>
