<svg width="55" height="55" viewBox="0 0 55 55" fill="none" xmlns="http://www.w3.org/2000/svg">
<g clip-path="url(#clip0_3703_170)">
<path d="M46.9426 19.4453H8.05755C7.15514 19.4453 6.44629 20.1542 6.44629 21.0566V46.2673L27.5001 49.4898L48.5539 46.2673V21.0566C48.5539 20.1542 47.845 19.4453 46.9426 19.4453Z" fill="url(#paint0_linear_3703_170)"/>
<path d="M54.5153 52.2603L48.5538 46.2664H6.4462L0.484652 52.2603C0.00116721 52.7114 -0.127626 53.3883 0.130068 54.0006C0.387977 54.6128 0.967923 54.9995 1.61253 54.9995H53.3877C54.0322 54.9995 54.6122 54.6128 54.8701 54.0006C55.1277 53.3883 54.9988 52.7114 54.5153 52.2603ZM6.57253 9.55065L6.00923 12.9368C5.95995 13.2319 5.99392 13.5348 6.10734 13.8117C6.22075 14.0885 6.40911 14.3283 6.65126 14.504C7.14538 14.8643 7.79987 14.9099 8.34115 14.6315L11.3874 13.0501L14.4336 14.6315C14.9694 14.9102 15.6276 14.8663 16.1235 14.504C16.3657 14.3283 16.554 14.0885 16.6674 13.8117C16.7808 13.5348 16.8148 13.2319 16.7656 12.9368L16.2023 9.55065L18.6475 7.14321C19.0818 6.71526 19.2392 6.07796 19.0503 5.49737C18.8615 4.91678 18.3611 4.49194 17.7569 4.40064L14.3645 3.89083L12.8287 0.820956C12.2811 -0.271048 10.4937 -0.271048 9.94607 0.820956L8.41033 3.89083L5.01788 4.40064C4.41365 4.49194 3.9133 4.91678 3.72446 5.49737C3.53562 6.07796 3.69299 6.71526 4.12728 7.14321L6.57253 9.55065ZM22.6851 9.55065L22.1218 12.9368C22.0725 13.2319 22.1065 13.5348 22.2199 13.8117C22.3333 14.0885 22.5217 14.3283 22.7638 14.504C23.258 14.8643 23.9157 14.9099 24.4537 14.6315L27.5 13.0501L30.5462 14.6315C31.082 14.9102 31.7402 14.8663 32.2361 14.504C32.4782 14.3283 32.6666 14.0885 32.78 13.8117C32.8934 13.5348 32.9274 13.2319 32.8782 12.9368L32.3149 9.55065L34.7601 7.14321C35.1944 6.71526 35.3518 6.07796 35.1629 5.49737C34.9741 4.91678 34.4737 4.49194 33.8695 4.40064L30.4771 3.89083L28.9413 0.820956C28.3937 -0.271048 26.6063 -0.271048 26.0587 0.820956L24.5229 3.89083L21.1305 4.40064C20.5262 4.49194 20.0259 4.91678 19.8371 5.49737C19.6482 6.07796 19.8056 6.71526 20.2399 7.14321L22.6851 9.55065ZM38.7977 9.55065L38.2344 12.9368C38.1851 13.2319 38.2191 13.5348 38.3325 13.8117C38.4459 14.0885 38.6343 14.3283 38.8764 14.504C39.3673 14.8643 40.0251 14.9099 40.5663 14.6315L43.6126 13.0501L46.6588 14.6315C47.1946 14.9102 47.8528 14.8663 48.3487 14.504C48.5908 14.3283 48.7792 14.0885 48.8926 13.8117C49.006 13.5348 49.04 13.2319 48.9907 12.9368L48.4274 9.55065L50.8727 7.14321C51.307 6.71526 51.4643 6.07796 51.2755 5.49737C51.0867 4.91678 50.5863 4.49194 49.9821 4.40064L46.5896 3.89083L45.0539 0.820956C44.5063 -0.271048 42.7189 -0.271048 42.1712 0.820956L40.6355 3.89083L37.2431 4.40064C36.6388 4.49194 36.1385 4.91678 35.9496 5.49737C35.7608 6.07796 35.9182 6.71526 36.3525 7.14321L38.7977 9.55065ZM12.9987 40.4982C12.9987 41.3888 13.7193 42.1095 14.6099 42.1095H40.3901C41.2807 42.1095 42.0013 41.3888 42.0013 40.4982C42.0013 39.6076 41.2807 38.8869 40.3901 38.8869H14.6099C13.7193 38.8869 12.9987 39.6076 12.9987 40.4982ZM26.2915 34.9119C26.7038 34.9119 27.1161 34.7545 27.4307 34.4398L32.2645 29.606C32.8938 28.9766 32.8938 27.9569 32.2645 27.3276C31.6351 26.6982 30.6154 26.6982 29.9861 27.3276L26.2914 31.0222L25.0139 29.7446C24.3846 29.1152 23.3649 29.1152 22.7355 29.7446C22.1061 30.3739 22.1061 31.3936 22.7355 32.023L25.1524 34.4399C25.3018 34.5897 25.4793 34.7086 25.6748 34.7896C25.8703 34.8706 26.0799 34.9121 26.2915 34.9119Z" fill="url(#paint1_linear_3703_170)"/>
</g>
<defs>
<linearGradient id="paint0_linear_3703_170" x1="27.5001" y1="49.4899" x2="27.5001" y2="19.4453" gradientUnits="userSpaceOnUse">
<stop stop-color="#FFE59A"/>
<stop offset="1" stop-color="#FFFFD5"/>
</linearGradient>
<linearGradient id="paint1_linear_3703_170" x1="27.5" y1="54.9995" x2="27.5" y2="0.00190068" gradientUnits="userSpaceOnUse">
<stop stop-color="#FD5900"/>
<stop offset="1" stop-color="#FFDE00"/>
</linearGradient>
<clipPath id="clip0_3703_170">
<rect width="55" height="55" fill="white"/>
</clipPath>
</defs>
</svg>
