<svg width="50" height="50" viewBox="0 0 50 50" fill="none" xmlns="http://www.w3.org/2000/svg">
<path d="M26.4648 39.9004L25 39.2578L23.5352 39.9004C22.2887 40.3425 21.2995 41.3316 20.8574 42.5781L19.7266 44.043L20.8574 45.5078C21.4621 47.2127 23.0903 48.4375 25 48.4375C26.9097 48.4375 28.5379 47.2127 29.1426 45.5078L30.4688 44.043L29.1426 42.5781C28.7005 41.3316 27.7113 40.3425 26.4648 39.9004ZM40.5767 13.5981C38.7437 6.56504 32.351 1.5625 25 1.5625C17.649 1.5625 11.2564 6.56514 9.42324 13.5981C3.9833 14.7169 0 19.4484 0 25C0 31.4617 5.30078 36.7188 11.8164 36.7188H23.5352L24.9023 38.1836L26.4648 36.7188H38.1836C44.6992 36.7188 50 31.4617 50 25C50 19.4484 46.0167 14.7169 40.5767 13.5981Z" fill="url(#paint0_linear_3739_66)"/>
<path d="M7.0106 24.5605C6.98121 24.6373 7.02128 24.6533 7.03063 24.6667C7.11879 24.7308 7.20829 24.7769 7.29846 24.8283C7.77667 25.0821 8.22816 25.1562 8.70036 25.1562C9.66212 25.1562 10.2592 24.6446 10.2592 23.8211V23.8051C10.2592 23.0437 9.58532 22.7672 8.95282 22.5675L8.87067 22.5408C8.3938 22.3858 7.98238 22.2523 7.98238 21.9384V21.9217C7.98238 21.6532 8.22282 21.4555 8.5955 21.4555C9.00959 21.4555 9.50116 21.5931 9.81774 21.768C9.81774 21.768 9.91058 21.8281 9.94464 21.738C9.96334 21.6899 10.1236 21.2584 10.1403 21.2117C10.1584 21.1609 10.1263 21.1235 10.0936 21.1035C9.73225 20.8837 9.23267 20.7335 8.71572 20.7335L8.61955 20.7341C7.73927 20.7341 7.12481 21.2658 7.12481 22.0278V22.0439C7.12481 22.8474 7.80272 23.1078 8.43788 23.2895L8.54007 23.3209C9.00292 23.4631 9.40165 23.5854 9.40165 23.9113V23.9273C9.40165 24.2252 9.1425 24.4469 8.72441 24.4469C8.56211 24.4469 8.04449 24.4436 7.48547 24.0903C7.41801 24.0509 7.3786 24.0222 7.32651 23.9908C7.29913 23.9734 7.23033 23.9434 7.20028 24.0342L7.0106 24.5605Z" fill="white"/>
<path d="M21.0902 24.5605C21.0608 24.6373 21.1009 24.6533 21.1102 24.6667C21.1984 24.7308 21.2879 24.7769 21.378 24.8283C21.8563 25.0821 22.3078 25.1562 22.78 25.1562C23.7417 25.1562 24.3388 24.6446 24.3388 23.8211V23.8051C24.3388 23.0437 23.6649 22.7672 23.0324 22.5675L22.9503 22.5408C22.4734 22.3858 22.062 22.2523 22.062 21.9384V21.9217C22.062 21.6532 22.3024 21.4555 22.6751 21.4555C23.0892 21.4555 23.5808 21.5931 23.8973 21.768C23.8973 21.768 23.9902 21.8281 24.0242 21.738C24.0429 21.6899 24.2032 21.2584 24.2199 21.2117C24.238 21.1609 24.2059 21.1235 24.1732 21.1035C23.8118 20.8837 23.3123 20.7335 22.7953 20.7335L22.6991 20.7341C21.8189 20.7341 21.2044 21.2658 21.2044 22.0278V22.0439C21.2044 22.8474 21.8823 23.1078 22.5175 23.2895L22.6197 23.3209C23.0825 23.4631 23.4819 23.5854 23.4819 23.9113V23.9273C23.4819 24.2252 23.2221 24.4469 22.804 24.4469C22.6417 24.4469 22.1241 24.4436 21.5651 24.0903C21.4976 24.0509 21.4575 24.0235 21.4068 23.9908C21.3894 23.9794 21.3079 23.948 21.2799 24.0342L21.0902 24.5605Z" fill="white"/>
<path d="M30.7021 22.9473C30.7021 23.4128 30.6152 23.7795 30.4443 24.0386C30.2753 24.2951 30.0195 24.42 29.6628 24.42C29.3055 24.42 29.051 24.2957 28.8847 24.0386C28.7164 23.7801 28.6309 23.4128 28.6309 22.9473C28.6309 22.4824 28.7164 22.1164 28.8847 21.8599C29.051 21.6061 29.3055 21.4826 29.6628 21.4826C30.0195 21.4826 30.2753 21.6061 30.4449 21.8599C30.6152 22.1164 30.7021 22.4824 30.7021 22.9473ZM31.5049 22.0844C31.4261 21.8179 31.3032 21.5828 31.1395 21.3871C30.9759 21.1907 30.7689 21.0331 30.5231 20.9182C30.278 20.804 29.9881 20.7459 29.6628 20.7459C29.3369 20.7459 29.047 20.804 28.8019 20.9182C28.5561 21.0331 28.3491 21.1907 28.1848 21.3871C28.0218 21.5834 27.8989 21.8185 27.8195 22.0844C27.7413 22.3495 27.7019 22.6394 27.7019 22.9473C27.7019 23.2552 27.7413 23.5457 27.8195 23.8102C27.8989 24.076 28.0212 24.3111 28.1855 24.5075C28.3491 24.7038 28.5568 24.8608 28.8019 24.9723C29.0477 25.0839 29.3369 25.1406 29.6628 25.1406C29.9881 25.1406 30.2773 25.0839 30.5231 24.9723C30.7682 24.8608 30.9759 24.7038 31.1395 24.5075C31.3032 24.3118 31.4261 24.0767 31.5049 23.8102C31.5837 23.545 31.6231 23.2545 31.6231 22.9473C31.6231 22.64 31.5837 22.3495 31.5049 22.0844Z" fill="white"/>
<path d="M38.0975 24.2938C38.0708 24.2157 37.9953 24.2451 37.9953 24.2451C37.8785 24.2898 37.7542 24.3312 37.622 24.3519C37.4877 24.3727 37.3401 24.3833 37.1819 24.3833C36.7931 24.3833 36.4846 24.2678 36.2635 24.0394C36.0418 23.811 35.9175 23.4416 35.9189 22.942C35.9202 22.4872 36.0297 22.1452 36.2268 21.8848C36.4225 21.6256 36.7203 21.4927 37.1177 21.4927C37.449 21.4927 37.7015 21.5308 37.966 21.6143C37.966 21.6143 38.0294 21.6416 38.0595 21.5588C38.1296 21.3638 38.1817 21.2242 38.2565 21.0098C38.2779 20.949 38.2258 20.923 38.2071 20.9156C38.1029 20.8749 37.8571 20.8088 37.6714 20.7807C37.4978 20.754 37.2947 20.74 37.069 20.74C36.7317 20.74 36.4311 20.7974 36.174 20.9123C35.9175 21.0265 35.6998 21.1841 35.5275 21.3805C35.3552 21.5769 35.2243 21.812 35.1368 22.0778C35.0499 22.3429 35.0059 22.6341 35.0059 22.942C35.0059 23.6079 35.1855 24.1462 35.5402 24.5403C35.8955 24.9357 36.4291 25.1367 37.1251 25.1367C37.5365 25.1367 37.9586 25.0532 38.2618 24.9337C38.2618 24.9337 38.3199 24.9056 38.2946 24.8382L38.0975 24.2938Z" fill="white"/>
<path d="M39.5022 22.5004C39.5403 22.242 39.6118 22.0269 39.722 21.8593C39.8883 21.6048 40.1421 21.4652 40.4987 21.4652C40.8554 21.4652 41.0911 21.6055 41.2601 21.8593C41.3723 22.0269 41.4211 22.2513 41.4405 22.5004H39.5022ZM42.2052 21.9321C42.1371 21.6749 41.9681 21.4151 41.8572 21.2962C41.6822 21.1079 41.5112 20.9763 41.3416 20.9029C41.1199 20.808 40.854 20.7452 40.5628 20.7452C40.2236 20.7452 39.9157 20.802 39.6659 20.9195C39.4154 21.0371 39.205 21.1974 39.04 21.3971C38.8751 21.5961 38.7509 21.8332 38.672 22.1024C38.5926 22.3702 38.5525 22.6621 38.5525 22.97C38.5525 23.2832 38.5939 23.5751 38.676 23.8376C38.7589 24.102 38.8911 24.3351 39.0701 24.5282C39.2484 24.7225 39.4782 24.8748 39.7534 24.981C40.0265 25.0865 40.3585 25.1413 40.7398 25.1406C41.5246 25.1379 41.938 24.963 42.1083 24.8688C42.1384 24.8521 42.1671 24.8227 42.1311 24.7385L41.9534 24.241C41.9267 24.1668 41.8512 24.1942 41.8512 24.1942C41.6568 24.2663 41.3803 24.3959 40.7358 24.3946C40.3144 24.3939 40.0018 24.2697 39.8061 24.0753C39.6051 23.8763 39.5069 23.5838 39.4895 23.171L42.2072 23.1737C42.2072 23.1737 42.2787 23.1723 42.286 23.1029C42.2887 23.0735 42.3795 22.5445 42.2052 21.9321Z" fill="white"/>
<path d="M17.7381 22.5004C17.7768 22.242 17.8476 22.0269 17.9578 21.8593C18.1241 21.6048 18.3779 21.4652 18.7346 21.4652C19.0912 21.4652 19.327 21.6055 19.4966 21.8593C19.6082 22.0269 19.6569 22.2513 19.6763 22.5004H17.7381ZM20.4404 21.9321C20.3722 21.6749 20.2039 21.4151 20.0931 21.2962C19.9181 21.1079 19.7471 20.9763 19.5774 20.9029C19.3557 20.808 19.0899 20.7452 18.7987 20.7452C18.4601 20.7452 18.1515 20.802 17.9017 20.9195C17.6512 21.0371 17.4409 21.1974 17.2759 21.3971C17.1109 21.5961 16.9867 21.8332 16.9079 22.1024C16.8291 22.3702 16.7883 22.6621 16.7883 22.97C16.7883 23.2832 16.8297 23.5751 16.9119 23.8376C16.9947 24.102 17.127 24.3351 17.3059 24.5282C17.4843 24.7225 17.714 24.8748 17.9892 24.981C18.2624 25.0865 18.5943 25.1413 18.9757 25.1406C19.7604 25.1379 20.1739 24.963 20.3442 24.8688C20.3742 24.8521 20.403 24.8227 20.3669 24.7385L20.1899 24.241C20.1625 24.1668 20.087 24.1942 20.087 24.1942C19.8927 24.2663 19.6168 24.3959 18.971 24.3946C18.5502 24.3939 18.2377 24.2697 18.042 24.0753C17.8409 23.8763 17.7427 23.5838 17.7254 23.171L20.443 23.1737C20.443 23.1737 20.5145 23.1723 20.5218 23.1029C20.5245 23.0735 20.6153 22.5445 20.4404 21.9321Z" fill="white"/>
<path d="M11.8636 24.2804C11.7574 24.1956 11.7427 24.1742 11.7066 24.1194C11.6532 24.0359 11.6258 23.917 11.6258 23.7661C11.6258 23.527 11.7046 23.3554 11.8683 23.2398C11.8663 23.2405 12.102 23.0361 12.6564 23.0434C13.0458 23.0488 13.3937 23.1062 13.3937 23.1062V24.3418H13.3944C13.3944 24.3418 13.0491 24.416 12.6604 24.4393C12.1074 24.4727 11.8616 24.2797 11.8636 24.2804ZM12.9449 22.3709C12.8347 22.3629 12.6918 22.3582 12.5208 22.3582C12.2877 22.3582 12.0626 22.3876 11.8516 22.4443C11.6392 22.5011 11.4482 22.5899 11.2839 22.7075C11.1189 22.8257 10.986 22.9767 10.8898 23.1557C10.7936 23.3346 10.7449 23.5457 10.7449 23.7821C10.7449 24.0226 10.7863 24.2316 10.8691 24.4026C10.9519 24.5743 11.0715 24.7172 11.2238 24.8274C11.3747 24.9376 11.561 25.0184 11.7774 25.0672C11.9905 25.1159 12.2323 25.1406 12.4968 25.1406C12.7753 25.1406 13.0531 25.1179 13.3223 25.0718C13.5888 25.0264 13.916 24.9603 14.0069 24.9396C14.097 24.9182 14.1972 24.8908 14.1972 24.8908C14.2647 24.8741 14.2593 24.802 14.2593 24.802L14.258 22.3168C14.258 21.7718 14.1124 21.3677 13.8259 21.1172C13.5407 20.8675 13.1206 20.7412 12.5776 20.7412C12.3739 20.7412 12.0459 20.7693 11.8496 20.8087C11.8496 20.8087 11.2558 20.9236 11.0114 21.1146C11.0114 21.1146 10.9579 21.148 10.9873 21.2228L11.1797 21.7397C11.2037 21.8065 11.2685 21.7838 11.2685 21.7838C11.2685 21.7838 11.2892 21.7758 11.3132 21.7618C11.8362 21.4772 12.4974 21.4859 12.4974 21.4859C12.7913 21.4859 13.017 21.5447 13.1693 21.6616C13.3176 21.7751 13.3931 21.9468 13.3931 22.3088V22.4236C13.1593 22.3902 12.9449 22.3709 12.9449 22.3709Z" fill="white"/>
<path d="M34.8638 20.9713C34.8845 20.9098 34.8411 20.8804 34.823 20.8737C34.7769 20.8557 34.5458 20.807 34.3675 20.7956C34.0262 20.7749 33.8365 20.8323 33.6669 20.9085C33.4986 20.9846 33.3116 21.1075 33.2074 21.2471V20.9165C33.2074 20.8704 33.1747 20.8337 33.1292 20.8337H32.4326C32.3872 20.8337 32.3545 20.8704 32.3545 20.9165V24.9699C32.3545 25.0153 32.3919 25.0527 32.4373 25.0527H33.1513C33.1967 25.0527 33.2334 25.0153 33.2334 24.9699V22.9449C33.2334 22.673 33.2635 22.4019 33.3236 22.2316C33.3824 22.0633 33.4625 21.9283 33.5614 21.8315C33.6609 21.7353 33.7738 21.6679 33.8973 21.6298C34.0236 21.5911 34.1631 21.5784 34.262 21.5784C34.4043 21.5784 34.5605 21.6151 34.5605 21.6151C34.6126 21.6211 34.642 21.5891 34.6594 21.5416C34.7061 21.4174 34.8384 21.0454 34.8638 20.9713Z" fill="white"/>
<path d="M28.1623 19.0902C28.0755 19.0635 27.9967 19.0455 27.8938 19.0261C27.7896 19.0074 27.6654 18.998 27.5245 18.998C27.0329 18.998 26.6455 19.137 26.3737 19.4108C26.1032 19.6833 25.9195 20.0981 25.8274 20.6437L25.794 20.8274H25.1768C25.1768 20.8274 25.102 20.8247 25.086 20.9062L24.9852 21.4719C24.9778 21.5253 25.0012 21.5594 25.0733 21.5594H25.6738L25.0646 24.9603C25.0172 25.2341 24.9624 25.4592 24.9017 25.6302C24.8422 25.7985 24.7841 25.9247 24.712 26.0169C24.6425 26.1051 24.5771 26.1705 24.4635 26.2086C24.37 26.24 24.2618 26.2547 24.1436 26.2547C24.0782 26.2547 23.9907 26.244 23.9259 26.2306C23.8618 26.218 23.8277 26.2039 23.7789 26.1832C23.7789 26.1832 23.7088 26.1565 23.6808 26.2266C23.6587 26.2847 23.4984 26.7249 23.4791 26.779C23.4604 26.8331 23.4871 26.8752 23.5211 26.8878C23.6013 26.9159 23.6607 26.9346 23.7696 26.9606C23.9205 26.996 24.0481 26.998 24.1677 26.998C24.4174 26.998 24.6459 26.9626 24.8349 26.8945C25.0246 26.8257 25.1902 26.7062 25.3371 26.5445C25.4954 26.3696 25.5949 26.1866 25.6898 25.9361C25.784 25.689 25.8648 25.3818 25.9289 25.0238L26.5413 21.5594H27.4363C27.4363 21.5594 27.5118 21.5621 27.5271 21.4799L27.6287 20.9149C27.6353 20.8608 27.6126 20.8274 27.5398 20.8274H26.6709C26.6756 20.808 26.715 20.5021 26.8145 20.2143C26.8573 20.0921 26.9374 19.9925 27.0049 19.9244C27.0716 19.8576 27.1485 19.8102 27.2326 19.7828C27.3188 19.7548 27.4169 19.7414 27.5245 19.7414C27.606 19.7414 27.6868 19.7508 27.7476 19.7635C27.8317 19.7815 27.8644 19.7908 27.8865 19.7975C27.9753 19.8242 27.9873 19.7982 28.0047 19.7554L28.2124 19.1851C28.2338 19.1236 28.181 19.0976 28.1623 19.0902Z" fill="white"/>
<path d="M16.0215 24.9667C16.0215 25.0121 15.9888 25.0488 15.9434 25.0488H15.2227C15.1773 25.0488 15.1453 25.0121 15.1453 24.9667V19.1667C15.1453 19.1213 15.1773 19.0846 15.2227 19.0846H15.9434C15.9888 19.0846 16.0215 19.1213 16.0215 19.1667V24.9667Z" fill="white"/>
<path d="M10.3516 42.578C9.54258 42.578 8.88672 43.2339 8.88672 44.0429C8.88672 44.8519 9.54258 45.5078 10.3516 45.5078H20.8574C20.6948 45.0493 20.6055 44.5563 20.6055 44.0429C20.6055 43.5294 20.6948 43.0365 20.8574 42.578H10.3516ZM23.5352 39.9003C23.9937 39.7377 24.4864 39.6483 25 39.6483C25.5136 39.6483 26.0063 39.7377 26.4648 39.9003V36.7188H23.5352V39.9003ZM39.6484 42.578H29.1426C29.3052 43.0365 29.3945 43.5294 29.3945 44.0429C29.3945 44.5563 29.3052 45.0493 29.1426 45.5078H39.6484C40.4574 45.5078 41.1133 44.8519 41.1133 44.0429C41.1133 43.2339 40.4574 42.578 39.6484 42.578Z" fill="url(#paint1_linear_3739_66)"/>
<defs>
<linearGradient id="paint0_linear_3739_66" x1="25" y1="48.4375" x2="25" y2="1.5625" gradientUnits="userSpaceOnUse">
<stop stop-color="#00B59C"/>
<stop offset="1" stop-color="#9CFFAC"/>
</linearGradient>
<linearGradient id="paint1_linear_3739_66" x1="25" y1="45.5078" x2="25" y2="10.3516" gradientUnits="userSpaceOnUse">
<stop stop-color="#C3FFE8"/>
<stop offset="0.997" stop-color="#F0FFF4"/>
</linearGradient>
</defs>
</svg>
