<svg width="55" height="55" viewBox="0 0 55 55" fill="none" xmlns="http://www.w3.org/2000/svg">
<g clip-path="url(#clip0_3703_166)">
<path d="M27.5 4.83398C18.6157 4.83398 11.3867 12.0629 11.3867 20.9473C11.3867 29.8316 18.6157 37.0605 27.5 37.0605C36.3843 37.0605 43.6133 29.8316 43.6133 20.9473C43.6133 12.0629 36.3843 4.83398 27.5 4.83398ZM33.9453 38.6719H21.0547C20.1522 38.6719 19.4434 39.3808 19.4434 40.2832V53.3887H35.5566V40.2832C35.5566 39.3808 34.8478 38.6719 33.9453 38.6719Z" fill="url(#paint0_linear_3703_166)"/>
<path d="M40.3906 51.7773H14.6094C13.7187 51.7773 12.998 52.498 12.998 53.3887C12.998 54.2793 13.7187 55 14.6094 55H40.3906C41.2813 55 42.002 54.2793 42.002 53.3887C42.002 52.498 41.2813 51.7773 40.3906 51.7773ZM27.5 32.2266C28.3702 32.2266 30.3682 28.8428 30.6581 22.5586H24.3418C24.6318 28.8428 26.6298 32.2266 27.5 32.2266ZM16.3818 19.3359H21.1192C21.248 16.1455 21.8281 13.084 22.8271 10.6992C19.4111 12.2783 16.9296 15.501 16.3818 19.3359ZM16.3818 22.5586C16.9297 26.3936 19.4111 29.6162 22.8271 31.1953C21.8281 28.8105 21.248 25.749 21.1192 22.5586H16.3818ZM27.5 9.66797C26.6298 9.66797 24.6318 13.0518 24.3419 19.3359H30.6582C30.3682 13.0518 28.3702 9.66797 27.5 9.66797ZM50.166 0H4.83398C2.15918 0 0 2.15918 0 4.83398V37.0605C0 39.7352 2.15918 41.8945 4.83398 41.8945H50.166C52.8408 41.8945 55 39.7352 55 37.0605V4.83398C55 2.15918 52.8408 0 50.166 0ZM27.5 35.4492C19.5079 35.4492 12.998 28.9393 12.998 20.9473C12.998 12.955 19.5079 6.44531 27.5 6.44531C35.4921 6.44531 42.002 12.955 42.002 20.9473C42.002 28.9393 35.4921 35.4492 27.5 35.4492ZM32.1729 31.1953C35.5889 29.6162 38.0703 26.3936 38.6182 22.5586H33.8808C33.752 25.749 33.1719 28.8105 32.1729 31.1953ZM32.1729 10.6992C33.1719 13.084 33.752 16.1455 33.8808 19.3359H38.6182C38.0704 15.501 35.5889 12.2783 32.1729 10.6992Z" fill="url(#paint1_linear_3703_166)"/>
</g>
<defs>
<linearGradient id="paint0_linear_3703_166" x1="27.5" y1="53.3887" x2="27.5" y2="4.83398" gradientUnits="userSpaceOnUse">
<stop stop-color="#FFC2CC"/>
<stop offset="1" stop-color="#FFF2F4"/>
</linearGradient>
<linearGradient id="paint1_linear_3703_166" x1="27.5" y1="42.0588" x2="27.5" y2="0" gradientUnits="userSpaceOnUse">
<stop stop-color="#FD3A84"/>
<stop offset="1" stop-color="#FFA68D"/>
</linearGradient>
<clipPath id="clip0_3703_166">
<rect width="55" height="55" fill="white"/>
</clipPath>
</defs>
</svg>
