<svg width="50" height="50" viewBox="0 0 50 50" fill="none" xmlns="http://www.w3.org/2000/svg">
<path d="M48.5352 5.95703H1.46484C0.644434 5.95703 0 6.60146 0 7.42188V14.7461L2.92969 17.6758H47.0703L50 14.7461V7.42188C50 6.60146 49.3556 5.95703 48.5352 5.95703Z" fill="url(#paint0_linear_742_2048)"/>
<path d="M7.42188 11.8164C8.23086 11.8164 8.88672 11.1605 8.88672 10.3516C8.88672 9.54258 8.23086 8.88672 7.42188 8.88672C6.61289 8.88672 5.95703 9.54258 5.95703 10.3516C5.95703 11.1605 6.61289 11.8164 7.42188 11.8164ZM13.2812 11.8164C14.0902 11.8164 14.7461 11.1605 14.7461 10.3516C14.7461 9.54258 14.0902 8.88672 13.2812 8.88672C12.4723 8.88672 11.8164 9.54258 11.8164 10.3516C11.8164 11.1605 12.4723 11.8164 13.2812 11.8164ZM19.1406 11.8164C19.9496 11.8164 20.6055 11.1605 20.6055 10.3516C20.6055 9.54258 19.9496 8.88672 19.1406 8.88672C18.3316 8.88672 17.6758 9.54258 17.6758 10.3516C17.6758 11.1605 18.3316 11.8164 19.1406 11.8164ZM0 14.7461V42.5781C0 43.3985 0.644434 44.043 1.46484 44.043H9.50205C9.22725 43.0812 9.07891 42.1013 8.98828 41.1133H11.9462C12.0624 42.1104 12.2532 43.0986 12.6074 44.043H17.9395C17.8224 43.1055 17.8028 42.103 17.7637 41.1133H20.6512C20.6921 42.1104 20.7606 43.0986 20.8983 44.043H29.1016C29.2393 43.0986 29.3077 42.1104 29.3487 41.1133H32.2362C32.1971 42.103 32.1775 43.1055 32.0605 44.043H37.4218C37.7577 43.1139 37.9436 42.1222 38.0573 41.1133H41.0128C40.9227 42.1132 40.774 43.0963 40.498 44.043H48.5352C49.3556 44.043 50 43.3985 50 42.5781V14.7461H0Z" fill="url(#paint1_linear_742_2048)"/>
<path d="M39.7949 33.2617C39.7656 33.2324 39.7656 33.203 39.7656 33.1737C39.7365 33.1152 39.6778 33.0566 39.6485 32.9687C37.0996 27.4023 31.5038 23.5352 25 23.5352C18.4962 23.5352 12.9004 27.4023 10.3516 32.9687C10.3223 33.0566 10.2636 33.1152 10.2345 33.1737C10.2345 33.203 10.2345 33.2324 10.2052 33.2617C9.35537 35.1952 8.88672 37.3925 8.88672 39.6484C8.88672 41.1426 9.0918 42.6074 9.50205 44.043H12.6075C12.0802 42.6368 11.8164 41.1426 11.8164 39.6484C11.8164 38.0956 12.0802 36.6308 12.5781 35.2539H17.9395C17.7637 36.6895 17.6757 38.1836 17.6757 39.6484C17.6757 41.1426 17.7637 42.6368 17.9395 44.043H20.8983C20.6935 42.6368 20.6055 41.1426 20.6055 39.6484C20.6055 38.0665 20.6935 36.6017 20.8983 35.2539H29.1016C29.3064 36.6017 29.3944 38.0665 29.3944 39.6484C29.3944 41.1426 29.3064 42.6368 29.1016 44.043H32.0604C32.2362 42.6368 32.3242 41.1426 32.3242 39.6484C32.3242 38.1836 32.2362 36.6895 32.0604 35.2539H37.4218C37.9198 36.6308 38.1835 38.0956 38.1835 39.6484C38.1835 41.172 37.9197 42.6661 37.4218 44.043H40.4979C40.9082 42.6368 41.1133 41.172 41.1133 39.6484C41.1133 37.3925 40.6446 35.1952 39.7949 33.2617ZM18.4375 32.3242H14.043C15.5371 30.127 17.6464 28.3983 20.1367 27.4023C19.4044 28.7792 18.8478 30.4785 18.4375 32.3242ZM21.4259 32.3242C22.3341 28.6034 23.828 26.4648 25 26.4648C26.172 26.4648 27.6659 28.6034 28.5741 32.3242H21.4259ZM31.5625 32.3242C31.1523 30.4785 30.5957 28.7792 29.8633 27.4023C32.3536 28.3983 34.4629 30.127 35.957 32.3242H31.5625Z" fill="url(#paint2_linear_742_2048)"/>
<defs>
<linearGradient id="paint0_linear_742_2048" x1="25" y1="17.6758" x2="25" y2="5.95703" gradientUnits="userSpaceOnUse">
<stop stop-color="#ADDCFF"/>
<stop offset="0.503" stop-color="#EAF6FF"/>
<stop offset="1" stop-color="#EAF6FF"/>
</linearGradient>
<linearGradient id="paint1_linear_742_2048" x1="25" y1="44.043" x2="25" y2="8.88672" gradientUnits="userSpaceOnUse">
<stop stop-color="#5558FF"/>
<stop offset="1" stop-color="#00C0FF"/>
</linearGradient>
<linearGradient id="paint2_linear_742_2048" x1="25" y1="44.043" x2="25" y2="23.5352" gradientUnits="userSpaceOnUse">
<stop stop-color="#ADDCFF"/>
<stop offset="0.503" stop-color="#EAF6FF"/>
<stop offset="1" stop-color="#EAF6FF"/>
</linearGradient>
</defs>
</svg>
