<svg width="55" height="55" viewBox="0 0 55 55" fill="none" xmlns="http://www.w3.org/2000/svg">
<path d="M50.3817 12.998H42.002L40.6055 14.6094L38.7793 12.998H35.5566L33.8379 11.3867L32.334 12.998H22.666L21.2695 11.3867L19.4434 12.998H16.2207L14.502 14.6094L12.998 12.998H4.61828C2.07174 12.998 0 15.0698 0 17.6163V47.0516C0 49.5982 2.07174 51.6699 4.61828 51.6699H12.998L14.502 50.0586L16.2207 51.6699H38.7793L40.6055 50.0586L42.002 51.6699H50.3817C52.9283 51.6699 55 49.5982 55 47.0516V17.6163C55 15.0698 52.9283 12.998 50.3817 12.998Z" fill="url(#paint0_linear_3703_158)"/>
<path d="M17.832 25.8887H16.2207V12.998H12.998V25.8887H11.3867C10.4968 25.8887 9.77539 26.6101 9.77539 27.5V33.9453C9.77539 34.8352 10.4968 35.5566 11.3867 35.5566H12.998V51.6699H16.2207V35.5566H17.832C18.7219 35.5566 19.4434 34.8352 19.4434 33.9453V27.5C19.4434 26.6101 18.7219 25.8887 17.832 25.8887ZM43.6133 25.8887H42.002V12.998H38.7793V25.8887H37.168C36.2781 25.8887 35.5566 26.6101 35.5566 27.5V33.9453C35.5566 34.8352 36.2781 35.5566 37.168 35.5566H38.7793V51.6699H42.002V35.5566H43.6133C44.5032 35.5566 45.2246 34.8352 45.2246 33.9453V27.5C45.2246 26.6101 44.5032 25.8887 43.6133 25.8887ZM35.5566 12.998V4.94141C35.5566 4.05152 34.8352 3.33008 33.9453 3.33008H21.0547C20.1648 3.33008 19.4434 4.05152 19.4434 4.94141V12.998H22.666V6.55273H32.334V12.998H35.5566Z" fill="url(#paint1_linear_3703_158)"/>
<defs>
<linearGradient id="paint0_linear_3703_158" x1="27.5" y1="51.6699" x2="27.5" y2="11.3867" gradientUnits="userSpaceOnUse">
<stop stop-color="#5558FF"/>
<stop offset="1" stop-color="#00C0FF"/>
</linearGradient>
<linearGradient id="paint1_linear_3703_158" x1="27.5" y1="51.6699" x2="27.5" y2="3.33008" gradientUnits="userSpaceOnUse">
<stop stop-color="#ADDCFF"/>
<stop offset="0.503" stop-color="#EAF6FF"/>
<stop offset="1" stop-color="#EAF6FF"/>
</linearGradient>
</defs>
</svg>
